<svg xmlns="http://www.w3.org/2000/svg" width="512" height="512" fill-rule="evenodd" clip-rule="evenodd" image-rendering="optimizeQuality" shape-rendering="geometricPrecision" text-rendering="geometricPrecision" viewBox="0 0 512 512"><path d="M353.97 0.43c0.03,7.81 2.31,120.68 120.76,127.72 0,32.55 0.04,56.15 0.04,87.21 -8.97,0.52 -77.98,-4.49 -120.93,-42.8l-0.13 169.78c1.63,117.84 -85.09,189.55 -198.44,164.78 -195.46,-58.47 -130.51,-348.37 65.75,-317.34 0,93.59 0.05,-0.03 0.05,93.59 -81.08,-11.93 -108.2,55.52 -86.65,103.81 19.6,43.97 100.33,53.5 128.49,-8.53 3.19,-12.14 4.78,-25.98 4.78,-41.52l0 -337.13 86.28 0.43z"/></svg>